<svg width="230" height="128" viewBox="0 0 230 128" fill="none" xmlns="http://www.w3.org/2000/svg">
<path d="M62.7601 56.95C65.356 56.95 67.4266 57.9373 68.0138 59.2641V57.4128H72.2167V75.0314H68.0138V73.18C67.4266 74.476 65.3869 75.4942 62.7601 75.4942C58.0317 75.4942 53.7979 71.7298 53.7979 66.2375C53.7979 60.7452 58.0626 56.95 62.7601 56.95ZM63.3163 70.8967C65.4796 70.8967 67.3648 69.8785 67.9211 68.5825V63.8925C67.3648 62.5657 65.4796 61.5783 63.3163 61.5783C60.2877 61.5783 58.2171 63.4913 58.2171 66.2684C58.2171 69.0145 60.2568 70.8967 63.3163 70.8967Z" fill="#DB3727" style="fill:#DB3727;fill:color(display-p3 0.8588 0.2157 0.1529);fill-opacity:1;"/>
<path d="M77.1611 57.4119H81.5186V66.9154C81.5186 69.4456 83.1256 70.8958 85.258 70.8958C87.1123 70.8958 88.8429 69.7541 89.152 68.2422V57.4427H93.5094V75.0613H89.3065V73.2717C88.8429 74.5676 87.1432 75.5241 84.609 75.5241C80.9933 75.5241 77.1611 73.1174 77.1611 67.6559V57.4119Z" fill="#DB3727" style="fill:#DB3727;fill:color(display-p3 0.8588 0.2157 0.1529);fill-opacity:1;"/>
<path d="M110.137 73.4573C109.302 74.6298 107.726 75.5246 105.748 75.5246C101.854 75.5246 99.969 73.303 99.969 69.5078V62.0407H96.9404V60.6522L102.998 53H104.327V57.4432H109.92V62.0716H104.296V68.5821C104.296 70.3409 105.315 70.9271 106.49 70.9271C107.695 70.9271 108.406 70.4952 109.209 69.6003L110.137 73.4573Z" fill="#DB3727" style="fill:#DB3727;fill:color(display-p3 0.8588 0.2157 0.1529);fill-opacity:1;"/>
<path d="M122.343 75.524C117.337 75.524 113.041 71.6053 113.041 66.2673C113.041 60.9293 117.368 56.9797 122.343 56.9797C127.35 56.9797 131.645 60.9601 131.645 66.2673C131.676 71.5745 127.35 75.524 122.343 75.524ZM122.343 70.8956C125.094 70.8956 127.288 69.0134 127.288 66.2364C127.288 63.4594 125.094 61.5464 122.343 61.5464C119.593 61.5464 117.399 63.4594 117.399 66.2364C117.399 69.0134 119.624 70.8956 122.343 70.8956Z" fill="#DB3727" style="fill:#DB3727;fill:color(display-p3 0.8588 0.2157 0.1529);fill-opacity:1;"/>
<path d="M137.486 69.5693C139.155 69.5693 140.453 70.8653 140.453 72.5315C140.453 74.1977 139.155 75.4936 137.486 75.4936C135.817 75.4936 134.52 74.1977 134.52 72.5315C134.52 70.8653 135.787 69.5693 137.486 69.5693Z" fill="#DB3727" style="fill:#DB3727;fill:color(display-p3 0.8588 0.2157 0.1529);fill-opacity:1;"/>
<path d="M155.472 62.288C154.947 61.9486 154.143 61.5783 153.154 61.5783C151.145 61.5783 149.817 62.8434 149.477 64.4479V75.0622H145.119V57.4436H149.322V59.7578C149.847 58.1225 151.238 56.95 153.216 56.95C154.514 56.95 155.627 57.5671 156.059 58.2767L155.472 62.288Z" fill="#DB3727" style="fill:#DB3727;fill:color(display-p3 0.8588 0.2157 0.1529);fill-opacity:1;"/>
<path d="M159.058 57.4119H163.415V66.9154C163.415 69.4456 165.022 70.8958 167.155 70.8958C169.009 70.8958 170.739 69.7541 171.048 68.2422V57.4427H175.406V75.0613H171.203V73.2717C170.739 74.5676 169.04 75.5241 166.506 75.5241C162.859 75.5241 159.058 73.1174 159.058 67.6559V57.4119Z" fill="#DB3727" style="fill:#DB3727;fill:color(display-p3 0.8588 0.2157 0.1529);fill-opacity:1;"/>
</svg>
