<svg width="230" height="128" viewBox="0 0 230 128" fill="none" xmlns="http://www.w3.org/2000/svg">
<path d="M76.1641 82.1933C81.6725 82.1933 86.1378 77.7177 86.1378 72.1968C86.1378 66.6758 81.6725 62.2002 76.1641 62.2002C70.6558 62.2002 66.1904 66.6758 66.1904 72.1968C66.1904 77.7177 70.6558 82.1933 76.1641 82.1933Z" fill="#97CF26" style="fill:#97CF26;fill:color(display-p3 0.5922 0.8118 0.1490);fill-opacity:1;"/>
<path d="M57.416 76.8494C59.98 76.8494 62.0585 74.7661 62.0585 72.1962C62.0585 69.6263 59.98 67.543 57.416 67.543C54.852 67.543 52.7734 69.6263 52.7734 72.1962C52.7734 74.7661 54.852 76.8494 57.416 76.8494Z" fill="#A169F7" style="fill:#A169F7;fill:color(display-p3 0.6314 0.4118 0.9686);fill-opacity:1;"/>
<path d="M76.1647 59.8393C79.7102 59.8393 82.5843 56.9586 82.5843 53.405C82.5843 49.8514 79.7102 46.9707 76.1647 46.9707C72.6193 46.9707 69.7451 49.8514 69.7451 53.405C69.7451 56.9586 72.6193 59.8393 76.1647 59.8393Z" fill="#FF6163" style="fill:#FF6163;fill:color(display-p3 1.0000 0.3804 0.3882);fill-opacity:1;"/>
<path d="M57.4164 61.6213C61.9433 61.6213 65.613 57.9431 65.613 53.4059C65.613 48.8686 61.9433 45.1904 57.4164 45.1904C52.8895 45.1904 49.2197 48.8686 49.2197 53.4059C49.2197 57.9431 52.8895 61.6213 57.4164 61.6213Z" fill="#00AAFF" style="fill:#00AAFF;fill:color(display-p3 0.0000 0.6667 1.0000);fill-opacity:1;"/>
<path d="M112.067 76.7953H117.245L107.656 50.627H103.901L94.3105 76.7962H99.4884L101.32 71.801H110.236L112.067 76.7962L102.762 67.8629L105.778 59.6341L108.793 67.8629H102.762L112.067 76.7953ZM130.079 58.9297L125.315 71.9292L120.552 58.9297H115.688L122.237 76.7953H128.394L134.942 58.9297H130.079M136.978 58.9297H141.843V76.7953H136.978V58.9297Z" fill="black" style="fill:black;fill-opacity:1;"/>
<path d="M139.427 56.9015C141.157 56.9015 142.559 55.496 142.559 53.7623C142.559 52.0285 141.157 50.623 139.427 50.623C137.697 50.623 136.295 52.0285 136.295 53.7623C136.295 55.496 137.697 56.9015 139.427 56.9015Z" fill="black" style="fill:black;fill-opacity:1;"/>
<path d="M159.02 62.8675V58.9303H153.192V54.002H148.331V58.9303H144.483V62.8675H148.331V70.554C148.331 74.5188 150.309 77.1651 155.359 77.1651C157.309 77.1651 159.02 76.4473 159.02 76.4473L158.429 72.5898C158.429 72.5898 157.471 72.8766 156.294 72.8766C154.851 72.8766 153.192 72.2532 153.192 70.2538V62.8671L159.02 62.8675ZM170.175 72.7122C167.463 72.7122 165.265 70.5571 165.265 67.8988C165.265 65.2426 167.463 63.087 170.174 63.087C172.887 63.087 175.084 65.2431 175.084 67.8992C175.084 70.5575 172.887 72.7122 170.175 72.7122ZM170.175 58.4744C164.903 58.4744 160.627 62.6667 160.627 67.8342C160.627 73.0039 164.903 77.194 170.175 77.194C175.445 77.194 179.721 73.0039 179.721 67.8342C179.721 62.6667 175.445 58.4744 170.174 58.4744" fill="black" style="fill:black;fill-opacity:1;"/>
</svg>
