<svg width="230" height="128" viewBox="0 0 230 128" fill="none" xmlns="http://www.w3.org/2000/svg">
<path d="M54.8086 83.0014H128.601V44.9985H54.8086V83.0014Z" fill="#E65131" style="fill:#E65131;fill:color(display-p3 0.9020 0.3176 0.1922);fill-opacity:1;"/>
<path d="M75.5011 58.1281C76.3584 58.4291 77.1954 58.7711 78.0156 59.1628L79.5381 55.3233C77.5087 54.3176 75.2823 53.7811 73.0183 53.7568C71.076 53.7114 69.1588 54.1937 67.4678 55.1504C65.8798 56.0864 64.6143 57.4844 63.8354 59.1544C62.9572 61.0594 62.5242 63.1424 62.5697 65.2412C62.5697 68.9146 63.4267 71.7355 65.1422 73.6987C66.8577 75.6656 69.3318 76.6462 72.5728 76.6462C74.668 76.6755 76.7501 76.2883 78.6921 75.504V71.5455C76.8776 72.2472 74.9604 72.6431 73.0183 72.717C69.2908 72.717 67.4307 70.2342 67.4307 65.2696C67.3158 63.3027 67.8266 61.3478 68.8904 59.6907C69.8387 58.3669 71.3935 57.6119 73.0183 57.687C73.864 57.69 74.7051 57.839 75.5011 58.1281ZM102.156 76.341L94.2628 53.984H88.4894L80.6345 76.341H85.7185L87.3358 71.0427H95.4505L97.0666 76.341H102.156ZM88.5265 67.08C90.11 61.9508 91.0676 58.7385 91.4012 57.4392C91.4835 57.8061 91.6197 58.3013 91.8052 58.9312C91.9955 59.5626 92.8325 62.2761 94.3251 67.08H88.5232H88.5265ZM109.677 57.9467H111.108C112.271 57.8674 113.433 58.0987 114.48 58.6137C115.231 59.1093 115.648 59.9755 115.57 60.87C115.64 61.7808 115.239 62.672 114.506 63.2163C113.504 63.7899 112.353 64.049 111.198 63.9626H109.677V57.9467ZM112.188 67.7978L117.504 76.341H122.741C121.722 74.878 119.54 71.6448 116.192 66.6386C117.413 66.1395 118.477 65.3109 119.256 64.2426C119.977 63.2207 120.357 61.996 120.336 60.7461C120.336 58.503 119.611 56.8288 118.159 55.7279C116.708 54.6267 114.469 54.0746 111.441 54.0746H104.955V76.341H109.677V67.7978H112.188Z" fill="white" style="fill:white;fill-opacity:1;"/>
<path d="M141.004 57.9471H142.435C143.597 57.8678 144.761 58.0991 145.808 58.6141C146.559 59.1096 146.98 59.9759 146.896 60.8703C146.967 61.7812 146.567 62.6678 145.829 63.2166C144.826 63.7858 143.677 64.0455 142.526 63.9629H141.004V57.9429V57.9471ZM143.515 67.7982L148.83 76.3414H154.067C153.053 74.8784 150.872 71.6452 147.519 66.639C148.744 66.1398 149.804 65.3068 150.584 64.243C151.305 63.2211 151.681 61.9963 151.664 60.7464C151.664 58.5034 150.938 56.8292 149.487 55.7283C148.035 54.6271 145.795 54.075 142.769 54.075H136.283V76.3414H141.004V67.7982H143.515ZM170.29 54.075V67.6779C170.401 69.0272 170.029 70.3752 169.242 71.4761C168.359 72.3585 167.131 72.8038 165.886 72.688C164.294 72.688 163.152 72.2888 162.46 71.4842C161.68 70.3878 161.313 69.0514 161.424 67.7075V54.075H156.719V68.4242C156.604 70.6801 157.47 72.878 159.094 74.4454C160.678 75.9132 162.901 76.6466 165.766 76.6466C167.461 76.6888 169.148 76.3497 170.698 75.6573C172.026 75.0517 173.139 74.057 173.89 72.8083C174.645 71.4929 175.028 69.9961 174.999 68.4822V54.0708H170.293L170.29 54.075Z" fill="black" style="fill:black;fill-opacity:1;"/>
</svg>
