<svg width="230" height="128" viewBox="0 0 230 128" fill="none" xmlns="http://www.w3.org/2000/svg">
<g clip-path="url(#clip0_253_1182)">
<path fill-rule="evenodd" clip-rule="evenodd" d="M106.402 57.4041H105.247C103.708 57.4041 103.369 58.6041 103.369 59.9401V60.2281H105.746V62.1521H103.37V70.8001H101.015V62.1521H99V60.2281H101.014V59.9401C101.014 57.0421 102.351 55.1641 105.247 55.1641H106.402V57.4041ZM125.164 66.3391H116.767C116.993 67.9691 118.307 68.9891 120.003 68.9891C121.18 68.9891 122.335 68.4461 122.877 67.4721C123.467 67.7441 124.168 68.0371 124.78 68.3091C123.852 70.1661 121.883 71.0251 119.89 71.0251C116.88 71.0251 114.458 68.8311 114.458 65.4791C114.458 62.1291 116.88 60.0021 119.89 60.0021C122.9 60.0021 125.187 62.1301 125.187 65.4791C125.187 65.7291 125.187 66.1131 125.164 66.3391ZM122.901 64.6421C122.675 62.9901 121.475 62.0391 119.891 62.0391C118.261 62.0391 116.993 63.0121 116.767 64.6421H122.901ZM109.344 70.7991H107.013V60.2301H109.343V62.6501C109.887 60.7721 110.928 60.0021 112.241 60.0021C112.988 60.0021 113.78 60.1831 114.12 60.4091L113.735 62.5601C113.252 62.315 112.716 62.1908 112.174 62.1981C110.181 62.1981 109.344 64.1881 109.344 66.9961V70.7991ZM126.298 62.7861C126.434 61.2241 128.132 60.0001 130.078 60.0001C131.956 60.0001 133.79 60.8611 133.927 63.1251H131.707C131.617 62.3321 130.893 61.9931 130.169 61.9931C129.58 61.9931 128.901 62.2201 128.674 62.5811C128.494 62.8761 128.47 63.2151 128.584 63.5311C128.72 63.9401 129.308 64.1891 129.874 64.3471L131.504 64.7541C133.79 65.3211 134.265 66.7691 134.265 67.8341C134.265 69.8701 132.477 71.0241 130.055 71.0241C128.087 71.0241 126.049 69.7801 126.003 67.5611H128.154C128.267 68.4671 129.014 69.0781 130.236 69.0781C131.3 69.0781 132.115 68.6021 132.115 67.8101C132.115 67.1321 131.413 66.7471 130.643 66.5651L129.218 66.2251C126.977 65.6151 126.161 64.4831 126.298 62.7851V62.7861ZM137.773 70.7991H135.442V55.8481H137.772V61.8351C138.362 60.5451 140.014 60.0021 141.122 60.0021C143.816 60.0021 145.402 61.7671 145.402 64.7791V70.7991H143.07V64.9141C143.07 63.2621 142.029 62.2881 140.715 62.2881C139.38 62.2881 137.773 63.0351 137.773 65.1181V70.7991Z" fill="#696B6E" style="fill:#696B6E;fill:color(display-p3 0.4118 0.4196 0.4314);fill-opacity:1;"/>
<path opacity="0.5" fill-rule="evenodd" clip-rule="evenodd" d="M158.442 69.094C157.747 70.239 156.221 70.822 154.92 70.822C152.091 70.822 149.601 68.69 149.601 65.347C149.601 62.003 152.091 59.893 154.921 59.893C156.176 59.893 157.725 60.409 158.442 61.599V60.119H160.732V70.597H158.442V69.094ZM155.189 68.578C156.894 68.578 158.42 67.389 158.42 65.325C158.42 63.26 156.76 62.137 155.189 62.137C153.439 62.137 151.979 63.394 151.979 65.325C151.979 67.253 153.439 68.578 155.189 68.578ZM169.234 60.118H171.545V70.598H169.234V69.072C168.628 70.261 167.214 70.822 166.114 70.822C163.556 70.822 162.032 69.183 162.052 66.222V60.118H164.365V65.952C164.365 67.681 165.284 68.577 166.542 68.577C167.888 68.577 169.234 67.837 169.234 65.75V60.118ZM177.019 60.118H179.079V62.025H177.019V70.598H174.709V62.025H172.824V60.118H174.708V56.145H177.019V60.118ZM179.397 65.324C179.397 62.004 181.888 59.894 184.851 59.894C187.834 59.894 190.348 62.004 190.348 65.324C190.348 68.645 187.834 70.822 184.851 70.822C181.888 70.822 179.397 68.645 179.397 65.324ZM188.037 65.324C188.037 63.394 186.601 62.159 184.851 62.159C183.122 62.159 181.686 63.393 181.686 65.324C181.686 67.299 183.122 68.578 184.851 68.578C186.601 68.578 188.037 67.299 188.037 65.324Z" fill="#626467" style="fill:#626467;fill:color(display-p3 0.3843 0.3922 0.4039);fill-opacity:1;"/>
<path fill-rule="evenodd" clip-rule="evenodd" d="M63.928 66.0469C65.096 67.2469 66.291 68.3969 67.554 69.4159C67.71 69.5449 67.873 69.6669 68.03 69.7919C68.19 69.9149 68.353 70.0359 68.512 70.1569C68.676 70.2739 68.839 70.3899 69.003 70.5039C69.17 70.6159 69.333 70.7299 69.502 70.8359C70.168 71.2699 70.859 71.6539 71.563 71.9789C72.2569 72.3006 72.9794 72.5568 73.721 72.7439C74.449 72.9239 75.181 73.0239 75.892 73.0459C76.071 73.0489 76.247 73.0569 76.423 73.0479L76.684 73.0399L76.75 73.0369C76.7667 73.0371 76.7834 73.0364 76.8 73.0349L76.83 73.0319L76.95 73.0219L77.186 72.9999L77.305 72.9899C77.345 72.9859 77.391 72.9789 77.433 72.9719C77.605 72.9489 77.778 72.9279 77.945 72.8999C78.5795 72.7899 79.2017 72.6184 79.803 72.3879C80.3628 72.1722 80.9008 71.904 81.41 71.5869C81.53 71.5069 81.653 71.4349 81.768 71.3529C81.882 71.2689 81.995 71.1869 82.108 71.1069L82.428 70.8489C82.532 70.7629 82.63 70.6709 82.73 70.5849C83.1049 70.2445 83.4526 69.8754 83.77 69.4809C84.067 69.1029 84.327 68.7239 84.551 68.3529C84.774 67.9809 84.96 67.6149 85.119 67.2649C85.159 67.1779 85.194 67.0879 85.23 67.0039C85.266 66.9169 85.304 66.8339 85.333 66.7489C85.395 66.5789 85.459 66.4179 85.508 66.2569C85.6854 65.7187 85.8165 65.1664 85.9 64.6059C85.938 64.3779 85.953 64.1749 85.972 63.9999C85.982 63.8239 85.992 63.6769 85.997 63.5579L86 63.1969V63.1929L85.988 62.8379C85.982 62.7199 85.965 62.5699 85.951 62.3939C85.925 62.2199 85.905 62.0179 85.857 61.7919C85.7499 61.2384 85.5916 60.6961 85.384 60.1719C85.1022 59.4643 84.737 58.7929 84.296 58.1719C83.7478 57.4029 83.0883 56.7197 82.339 56.1449C81.4556 55.4635 80.4547 54.95 79.386 54.6299C78.7944 54.4538 78.1873 54.3349 77.573 54.2749C77.493 54.2679 77.415 54.2569 77.334 54.2529L77.094 54.2399L76.973 54.2339L76.912 54.2299L76.882 54.2289L76.844 54.2279H76.605C76.525 54.2279 76.447 54.2249 76.365 54.2299L76.109 54.2439C75.937 54.2509 75.772 54.2739 75.603 54.2929C74.9117 54.3803 74.2324 54.5454 73.578 54.7849C72.908 55.0259 72.248 55.3399 71.604 55.7049C70.316 56.4389 69.087 57.3749 67.904 58.4189C66.964 59.2489 65.515 60.6979 64.604 61.6359L65.554 62.6589C66.5752 61.5091 67.6273 60.387 68.709 59.2939C69.792 58.2169 70.899 57.2439 72.066 56.4739C72.649 56.0909 73.246 55.7579 73.852 55.4909C74.4431 55.2275 75.0625 55.0329 75.698 54.9109C75.853 54.8849 76.008 54.8529 76.158 54.8389L76.385 54.8119C76.46 54.8029 76.543 54.8019 76.622 54.7949L76.86 54.7809L77.081 54.7799L77.31 54.7789C77.386 54.7779 77.462 54.7849 77.536 54.7889C78.139 54.8149 78.722 54.8979 79.275 55.0389C80.3145 55.2996 81.2941 55.7583 82.16 56.3899C82.56 56.6839 82.926 56.9959 83.244 57.3249C83.564 57.6509 83.842 57.9899 84.087 58.3249C84.5211 58.9246 84.8764 59.5776 85.144 60.2679C85.379 60.8679 85.509 61.4049 85.583 61.8419C85.625 62.0609 85.64 62.2569 85.663 62.4249C85.674 62.5919 85.686 62.7309 85.69 62.8459L85.696 63.1959L85.683 63.5439C85.675 63.6579 85.662 63.7999 85.646 63.9679C85.623 64.1349 85.603 64.3299 85.559 64.5479C85.459 65.0828 85.3101 65.6073 85.114 66.1149C84.9905 66.4352 84.8493 66.7483 84.691 67.0529C84.603 67.2139 84.517 67.3829 84.411 67.5459C84.315 67.7139 84.201 67.8779 84.087 68.0479C83.85 68.3799 83.584 68.7179 83.276 69.0439C82.9529 69.3807 82.6038 69.6917 82.232 69.9739C81.4052 70.5968 80.4625 71.0486 79.459 71.3029C78.929 71.4389 78.371 71.5229 77.795 71.5469C77.653 71.5509 77.515 71.5499 77.375 71.5529C77.338 71.5529 77.305 71.5549 77.267 71.5529L77.149 71.5489L76.91 71.5409L76.79 71.5359L76.76 71.5339C76.733 71.5339 76.764 71.5339 76.75 71.5329L76.695 71.5279C76.6217 71.5201 76.5484 71.5127 76.475 71.5059C76.328 71.4959 76.18 71.4699 76.032 71.4489C75.428 71.3506 74.836 71.1887 74.266 70.9659C73.6665 70.7267 73.0896 70.4345 72.542 70.0929C71.9619 69.7311 71.4058 69.3323 70.877 68.8989C70.74 68.7889 70.605 68.6719 70.469 68.5589C70.335 68.4389 70.201 68.3219 70.065 68.2019C69.931 68.0789 69.796 67.9579 69.662 67.8319C69.529 67.7049 69.394 67.5809 69.262 67.4499C68.5396 66.7331 67.8393 65.9944 67.162 65.2349L67.159 65.2379L66.894 64.9379C66.817 64.8529 66.743 64.7739 66.667 64.6879C66.472 64.4679 66.277 64.2469 66.081 64.0229L65.721 63.6089L62.46 59.9099C61.35 58.6969 60.164 57.4769 58.796 56.3369C58.052 55.7289 57.261 55.1379 56.382 54.6259C55.944 54.3689 55.49 54.1259 55.008 53.9169C54.528 53.7069 54.031 53.5169 53.51 53.3719C53.446 53.3549 53.381 53.3349 53.316 53.3179L53.118 53.2709C52.985 53.2409 52.855 53.2039 52.72 53.1819L52.316 53.1099L51.907 53.0569C51.777 53.0379 51.62 53.0309 51.474 53.0199L51.251 53.0069C51.211 53.0029 51.184 53.0039 51.155 53.0029H51.067L50.893 53.0009H50.762C50.662 52.9989 50.706 53.0009 50.67 53.0009L50.388 53.0139C49.8271 53.0367 49.2692 53.1066 48.72 53.2229C48.17 53.3419 47.629 53.4899 47.103 53.6899C45.0585 54.4581 43.2835 55.808 41.997 57.5729C41.834 57.7919 41.687 58.0229 41.539 58.2529L41.332 58.6089C41.262 58.7259 41.203 58.8499 41.138 58.9709L41.043 59.1539L40.956 59.3399C40.9 59.4669 40.838 59.5899 40.79 59.7179L40.635 60.0999L40.497 60.4999C40.307 61.0509 40.177 61.6199 40.1 62.1999C40.067 62.4399 40.036 62.6759 40.023 62.9399C40.013 63.0829 40.002 63.2429 40.003 63.3529L40 63.7489C40.01 64.2989 40.063 64.8489 40.158 65.3909C40.3568 66.4672 40.7276 67.5044 41.256 68.4629C41.384 68.7029 41.53 68.9299 41.673 69.1589L41.903 69.4909C41.979 69.6019 42.064 69.7059 42.145 69.8139C43.4512 71.4984 45.2242 72.7615 47.243 73.4459C47.738 73.6159 48.246 73.7399 48.758 73.8349L49.143 73.8989L49.529 73.9439C49.656 73.9609 49.794 73.9689 49.929 73.9769L50.133 73.9899C50.166 73.9909 50.203 73.9939 50.233 73.9939L50.32 73.9949L50.67 73.9989H50.742L50.792 73.9969L50.892 73.9929L51.09 73.9839C51.223 73.9819 51.354 73.9639 51.485 73.9519L51.682 73.9319C51.747 73.9229 51.812 73.9109 51.877 73.9009C52.007 73.8779 52.137 73.8609 52.264 73.8329L52.645 73.7469C52.895 73.6799 53.145 73.6139 53.387 73.5289C53.632 73.4509 53.867 73.3529 54.102 73.2599C54.332 73.1569 54.563 73.0569 54.784 72.9429C55.01 72.8349 55.223 72.7109 55.44 72.5919C55.65 72.4659 55.863 72.3439 56.064 72.2089C56.8608 71.6889 57.6188 71.1117 58.332 70.4819C59.848 69.1539 61.254 67.5469 62.84 65.7989L61.712 64.6669C61.247 65.1509 61.09 65.3849 60.957 65.5239C59.769 66.7659 58.531 67.9989 57.186 69.0999C56.5206 69.6496 55.8165 70.1505 55.079 70.5989C54.897 70.7119 54.709 70.8099 54.524 70.9139C54.336 71.0089 54.149 71.1109 53.957 71.1939C53.767 71.2859 53.573 71.3599 53.38 71.4399C53.184 71.5099 52.99 71.5829 52.793 71.6389C52.596 71.7019 52.397 71.7449 52.199 71.7919L51.899 71.8489C51.8 71.8689 51.699 71.8759 51.599 71.8909C51.549 71.8969 51.5 71.9059 51.449 71.9099L51.299 71.9199C51.199 71.9259 51.099 71.9389 50.999 71.9369L50.721 71.9409L50.371 71.9269L50.284 71.9239C50.255 71.9229 50.234 71.9189 50.209 71.9169L50.063 71.9029C49.965 71.8939 49.871 71.8869 49.765 71.8689L49.455 71.8249L49.149 71.7659C48.7393 71.6797 48.3363 71.5644 47.943 71.4209C46.3492 70.8329 44.9631 69.7897 43.957 68.4209C43.897 68.3339 43.83 68.2529 43.775 68.1629L43.602 67.8989C43.497 67.7169 43.387 67.5389 43.294 67.3489C43.1003 66.9787 42.9378 66.593 42.808 66.1959C42.6797 65.8005 42.5827 65.3955 42.518 64.9849C42.4582 64.5743 42.4294 64.1598 42.432 63.7449C42.464 62.0805 43.0439 60.4732 44.082 59.1719C45.355 57.5551 47.1819 56.4674 49.21 56.1189C49.602 56.0489 49.997 56.0209 50.39 56.0089C50.7723 56.0017 51.1546 56.0258 51.533 56.0809L51.814 56.1279L52.092 56.1879C52.186 56.2049 52.277 56.2369 52.369 56.2609L52.508 56.2969C52.554 56.3109 52.599 56.3269 52.645 56.3419C54.113 56.8069 55.498 57.7309 56.783 58.8049C57.4301 59.3509 58.0559 59.9216 58.659 60.5159C59.2655 61.1155 59.8616 61.7256 60.447 62.3459L60.705 62.6219L60.715 62.6189C60.715 62.6189 61.146 63.0879 61.741 63.7309L62.191 64.2109L62.188 64.2139C62.529 64.5839 62.896 64.9789 63.254 65.3639L63.929 66.0469H63.928Z" fill="#696B6E" style="fill:#696B6E;fill:color(display-p3 0.4118 0.4196 0.4314);fill-opacity:1;"/>
</g>
<defs>
<clipPath id="clip0_253_1182">
<rect width="151" height="21" fill="white" style="fill:white;fill-opacity:1;" transform="translate(40 53)"/>
</clipPath>
</defs>
</svg>
