<svg width="230" height="128" viewBox="0 0 230 128" fill="none" xmlns="http://www.w3.org/2000/svg">
<g clip-path="url(#clip0_253_1209)">
<path d="M178 47H52V81H178V47Z" fill="#ED252F" style="fill:#ED252F;fill:color(display-p3 0.9294 0.1451 0.1843);fill-opacity:1;"/>
<path fill-rule="evenodd" clip-rule="evenodd" d="M87.3217 52.8394V75.2794H79.3277L79.7694 65.4874L75.4224 75.2794H70.0923L68.5702 65.3429L65.9911 75.2593H57.7871L64.4931 52.8394L73.1863 52.8393L74.5389 61.9544L78.42 52.8393L87.3217 52.8394Z" fill="white" style="fill:white;fill-opacity:1;"/>
<path fill-rule="evenodd" clip-rule="evenodd" d="M132.088 59.9533L128.498 59.8096L126.658 75.2595H117.961L119.94 59.8405L116.636 59.9533L111.087 52.8298H132.842L132.088 59.9533Z" fill="white" style="fill:white;fill-opacity:1;"/>
<path fill-rule="evenodd" clip-rule="evenodd" d="M143.186 52.8298L141.569 66.7629C141.514 67.6044 141.911 68.4459 142.673 68.8044C143.459 69.0927 144.439 68.976 145.053 68.3972C145.597 67.9382 145.792 67.3169 145.94 66.6655L147.876 52.8298L156.183 52.8301L154.386 68.1781C153.997 70.3672 152.963 72.4366 150.972 73.8321C148.102 75.8721 144.267 76.1835 140.557 75.6812C137.61 75.1511 134.25 73.2742 133.285 70.3417C132.873 69.2854 132.943 68.0135 132.943 66.859L134.662 52.8301L143.186 52.8298Z" fill="white" style="fill:white;fill-opacity:1;"/>
<path fill-rule="evenodd" clip-rule="evenodd" d="M165.221 68.1682H172.05L170.036 75.2595H155.491L158.517 52.8296L167.158 52.8299L165.221 68.1682Z" fill="white" style="fill:white;fill-opacity:1;"/>
<path fill-rule="evenodd" clip-rule="evenodd" d="M108.286 53.6615L109.147 54.311L114.231 60.7059C114.797 61.7846 114.82 63.1578 114.771 64.4575C114.698 68.7554 111.825 72.7697 107.819 74.5725C102.932 76.8343 96.398 75.7756 92.5675 72.075C89.1779 68.9239 88.4896 63.6121 90.2582 59.5267C92.3217 54.9831 97.1836 52.1452 102.196 52.3644C104.357 52.4106 106.444 52.7714 108.286 53.6615ZM103.031 59.8157C101.188 59.5723 99.4438 60.4146 98.5112 62.0257C97.7257 63.3726 97.5281 65.2457 98.3627 66.6173C98.953 67.7694 100.182 68.5645 101.483 68.6835C103.177 68.828 104.677 68.0128 105.56 66.6173C106.469 65.3206 106.52 63.2026 105.78 61.8101C105.29 60.7523 104.135 60.0081 103.031 59.8157Z" fill="white" style="fill:white;fill-opacity:1;"/>
</g>
<defs>
<clipPath id="clip0_253_1209">
<rect width="126" height="34" fill="white" style="fill:white;fill-opacity:1;" transform="translate(52 47)"/>
</clipPath>
</defs>
</svg>
