<svg width="230" height="128" viewBox="0 0 230 128" fill="none" xmlns="http://www.w3.org/2000/svg">
<path d="M192.461 56.0997C192.461 55.0273 191.596 54.1573 190.53 54.1573C189.471 54.1574 188.599 55.0344 188.6 56.0996C188.6 57.165 189.472 58.0414 190.53 58.0417C191.59 58.0421 192.46 57.1653 192.461 56.0997ZM188.272 56.0996C188.272 54.8531 189.291 53.8281 190.53 53.8281C191.775 53.8281 192.788 54.8463 192.788 56.0991C192.788 57.3453 191.769 58.3704 190.53 58.3708C189.291 58.3712 188.272 57.3461 188.272 56.0996Z" fill="#7F7F7F" style="fill:#7F7F7F;fill:color(display-p3 0.4980 0.4980 0.4980);fill-opacity:1;"/>
<path fill-rule="evenodd" clip-rule="evenodd" d="M190.464 54.4314C190.524 54.988 190.969 54.6718 191.161 54.5163C191.231 54.4604 191.317 54.3574 191.364 54.3284C191.395 54.3103 191.439 54.3231 191.457 54.361C191.475 54.4169 191.483 54.4875 191.449 54.5904C191.407 54.7115 191.337 54.8289 191.298 54.8922C191.195 55.0584 191.095 55.2047 190.974 55.3583C190.779 55.6041 190.531 55.7992 190.326 56.0396C190.012 56.4082 189.834 56.9774 189.931 57.458C189.956 57.5808 190.014 57.7362 190.13 57.8012C190.824 58.188 191.332 56.5292 191.097 56.0396C191.064 55.9763 191 55.8624 190.913 55.8788C190.479 55.9601 190.278 57.3803 190.549 57.4832C190.536 57.6513 190.271 57.7543 190.193 57.4435C190.168 57.3351 190.163 57.2212 190.166 57.1092C190.18 56.6358 190.556 55.9202 190.987 55.7017C191.183 55.6004 191.46 55.6023 191.569 55.8282C191.955 56.6322 190.912 58.1175 190.008 57.9819C189.572 57.9151 189.414 57.4941 189.448 57.0947C189.475 56.766 189.611 56.4533 189.8 56.1859C190.181 55.6475 190.781 55.4903 191.071 55.0675C191.071 55.0675 191.083 55.0512 191.085 55.0422C191.089 55.0289 191.074 55.0132 191.054 55.0289C191.022 55.0579 190.855 55.1447 190.738 55.159C190.503 55.1861 190.375 54.8627 190.336 54.6838C190.327 54.6441 190.325 54.6134 190.287 54.6639C190.172 54.8139 190.084 55.6524 189.967 55.6993L189.511 55.8818C189.511 55.8818 189.491 55.8911 189.484 55.8638C189.432 55.6686 189.903 54.9911 190.034 54.7633C190.052 54.7345 190.16 54.5231 190.179 54.5067C190.213 54.4779 190.421 54.4242 190.464 54.4314Z" fill="#7F7F7F" style="fill:#7F7F7F;fill:color(display-p3 0.4980 0.4980 0.4980);fill-opacity:1;"/>
<path d="M53.8459 70.3625H47.5631L43.7152 63.9439L42.4649 65.2525V70.3625H37.2129V54.2139H42.4649V59.4259L46.9682 54.2139H53.1281L47.3526 60.2369L53.8459 70.3625ZM60.8781 64.3716C60.8781 63.6332 60.7059 62.9637 60.361 62.3706C60.0163 61.7776 59.4841 61.4792 58.7572 61.4792C58.1088 61.4792 57.618 61.7776 57.2882 62.3745C56.9584 62.9751 56.7936 63.6409 56.7936 64.3716C56.7936 65.1559 56.9697 65.8982 57.322 66.5907C57.6705 67.287 58.21 67.6351 58.9333 67.6351C59.6304 67.6351 60.1287 67.2984 60.4285 66.6213C60.7283 65.9442 60.8781 65.1942 60.8781 64.3716ZM64.5208 68.01C63.2798 69.8613 61.1527 70.7276 58.9527 70.7276C56.6854 70.7276 54.5002 69.8686 53.2331 67.9437C52.0708 66.1778 51.9221 63.2984 52.9012 61.4142C53.6544 59.9641 55.035 58.916 56.6179 58.4902C58.3615 58.0033 60.2486 58.1086 61.9226 58.8032C63.4879 59.4503 64.6525 60.7817 65.1595 62.3644C65.7132 64.0924 65.5156 66.5256 64.5208 68.01ZM105.222 63.187C105.057 62.4179 104.787 61.8848 104.414 61.5877C104.038 61.2862 103.563 61.1377 102.983 61.1377C102.42 61.1377 101.975 61.282 101.646 61.5746C101.317 61.8631 101.069 62.4005 100.897 63.187H105.222ZM109.715 65.4677H100.942C100.942 65.8312 101.004 66.1502 101.129 66.4282C101.506 67.2737 102.189 67.8444 103.167 67.8444C103.885 67.8444 104.713 67.5535 104.867 66.7689H109.36C109.19 67.8823 108.483 68.8646 107.574 69.5101C106.657 70.1593 105.53 70.521 104.418 70.6487C102.992 70.825 101.341 70.7771 100.02 70.2222C98.4835 69.5796 97.3359 68.3916 96.711 66.8585C96.137 65.3642 96.1292 63.7067 96.6855 62.2004C97.2626 60.6378 98.4506 59.4293 99.9912 58.7885C101.865 58.0125 104.488 58.0651 106.299 58.9738C107.907 59.7772 109.003 61.1467 109.459 62.8753C109.684 63.7448 109.769 64.5779 109.715 65.4677ZM122.298 68.0324C121.435 69.6876 119.841 70.7215 117.92 70.7215C116.54 70.7215 115.632 70.2703 114.699 69.3073V74.3709H110.019V58.6355H114.163V60.39C115.062 58.5881 117.287 57.9334 119.082 58.388C121.037 58.8787 122.354 60.5328 122.823 62.392C123.261 64.1201 123.109 66.4887 122.298 68.0324ZM118.486 64.2064C118.486 63.7091 118.322 63.1662 117.99 62.5814C117.659 61.9967 117.178 61.7044 116.551 61.7044C115.929 61.7044 115.448 61.9777 115.113 62.5282C114.777 63.075 114.609 63.6331 114.609 64.2064C114.609 64.9089 114.74 65.5657 115.001 66.1732C115.265 66.7807 115.78 67.0845 116.551 67.0845C117.305 67.0845 117.812 66.7693 118.084 66.1391C118.33 65.5308 118.486 64.8656 118.486 64.2064ZM133.132 70.2275C131.313 70.8682 128.842 70.9665 127.031 70.2086C125.891 69.7315 124.88 68.9263 124.242 67.8556C123.618 66.8272 123.294 65.6425 123.294 64.4366C123.294 63.6333 123.462 62.8441 123.745 62.0947C124.399 60.4095 125.53 59.4426 127.163 58.7728C129.032 58.0061 131.808 58.034 133.582 59.0055C135.273 59.9313 136.159 61.2064 136.391 63.0855H131.602C131.518 62.5075 131.356 62.1502 131.119 61.8454C130.448 60.9814 128.93 61.4036 128.445 62.2561C127.827 63.3439 127.725 64.9508 128.116 66.1432C128.374 66.9292 129.223 67.5955 130.047 67.5955C131.215 67.5955 131.458 66.8039 131.763 65.8198H136.391C136.343 67.7874 135.173 69.5081 133.132 70.2275ZM144.928 65.7512C144.928 65.5329 144.908 65.3537 144.869 65.2172C144.548 65.3965 144.046 65.5524 143.365 65.6849C142.846 65.7803 142.294 65.897 141.83 66.1528C141.172 66.48 141.208 67.4185 141.783 67.7976C142.449 68.2005 143.565 68.1673 144.125 67.6028C144.657 67.0921 144.928 66.4763 144.928 65.7512ZM150.135 70.3625H145.344L145.162 69.1204C144.813 69.5744 144.032 69.9485 143.244 70.2537C142.86 70.4025 142.466 70.5202 142.062 70.5952C141.658 70.6665 141.228 70.7041 140.78 70.7041C139.972 70.7041 139.233 70.5615 138.564 70.2763C137.894 69.991 137.388 69.5444 137.039 68.9439C136.726 68.2834 136.569 67.6153 136.569 66.9323C136.569 66.0691 136.969 65.3573 137.518 64.7192C137.831 64.3552 138.138 64.1507 138.691 63.937C138.953 63.8357 139.212 63.7477 139.466 63.6743C139.718 63.6014 139.957 63.5321 140.183 63.4978L142.145 63.2014C142.978 63.0755 143.783 62.967 144.139 62.8486C144.358 62.7756 144.617 62.5375 144.744 62.3874C144.871 62.2374 144.853 62.0796 144.853 61.9183C144.853 61.6968 144.747 61.5129 144.532 61.3629C144.318 61.2128 144.012 61.1377 143.615 61.1377C143.138 61.1377 142.546 61.209 142.258 61.3516C141.971 61.4942 141.785 61.7795 141.698 62.2035H137.26C137.409 61.4341 137.382 60.985 137.599 60.5152C137.815 60.0468 138.156 59.6446 138.622 59.3105C139.088 58.9766 139.728 58.717 140.547 58.5449C140.943 58.4619 141.414 58.4039 141.949 58.361C142.488 58.3177 143.084 58.2935 143.747 58.2935C145.359 58.2935 146.567 58.4864 147.372 58.8714C148.176 59.2558 148.7 59.5655 148.944 60.1431C149.188 60.7177 149.352 61.4642 149.428 62.3799V68.5799C149.428 69.2179 149.665 69.6908 150.135 69.9986V70.3625ZM163.152 70.3625H158.531V65.9796H155.108V70.3625H150.532L150.527 58.8184L150.532 58.6419H155.108V62.5691H158.479V58.6419H163.152L163.148 70.1524L163.152 70.3625ZM175.993 62.0962H172.013V70.3625H167.378V62.0962H163.365V58.6419H175.993V62.0962ZM191.003 66.6119C191.003 67.6414 190.515 68.5458 189.732 69.1909C188.702 70.0483 187.277 70.3625 185.969 70.3625H178.815V62.0962H176.143V58.6419H183.275V62.7556H185.715C187.073 62.7556 188.579 63.0228 189.656 63.9202C190.465 64.5948 191.003 65.5384 191.003 66.6119ZM186.396 66.6238C186.396 65.8833 185.988 65.5726 185.288 65.4883C185.146 65.4883 184.865 65.4763 184.448 65.4584C184.031 65.4396 183.473 65.4322 183.275 65.4322V67.6958L184.434 67.7183C184.75 67.725 185.01 67.7116 185.212 67.6958C185.923 67.6427 186.396 67.4482 186.396 66.6238ZM74.432 70.3624H72.1859L69.7316 62.5327L70.1107 65.6016V70.3624H66.0123V58.5743H71.2685L73.3089 65.0858L75.3494 58.5743H80.6057V70.3624H76.5072V65.6016L76.8862 62.5327L74.432 70.3624ZM89.7799 70.3624H87.5338L85.0795 62.5327L85.4586 65.6016V70.3624H81.3601V58.5743H86.6164L88.6568 65.0858L90.6973 58.5743H95.9534V70.3624H91.8551V65.6016L92.2341 62.5327L89.7799 70.3624Z" fill="black" style="fill:black;fill-opacity:1;"/>
</svg>
