<svg width="230" height="128" viewBox="0 0 230 128" fill="none" xmlns="http://www.w3.org/2000/svg">
<g clip-path="url(#clip0_253_1192)">
<path fill-rule="evenodd" clip-rule="evenodd" d="M76.759 37.1145H153.212C155.223 37.1145 156.853 38.7428 156.853 40.7511V88.0341C156.853 90.0431 155.223 91.6714 153.212 91.6714H76.759C74.748 91.6714 73.1182 90.0431 73.1182 88.0341V40.7511C73.1182 38.7428 74.748 37.1145 76.759 37.1145Z" fill="white" style="fill:white;fill-opacity:1;"/>
<path fill-rule="evenodd" clip-rule="evenodd" d="M74.2549 64.2908V87.9256C74.2549 89.3107 75.3929 90.5212 76.7801 90.5212L153.275 90.5236C154.667 90.5236 155.81 89.2553 155.81 87.8708V64.2928" fill="#D9261C" style="fill:#D9261C;fill:color(display-p3 0.8510 0.1490 0.1098);fill-opacity:1;"/>
<path fill-rule="evenodd" clip-rule="evenodd" d="M125.205 67.0347H131.026V82.7131H137.988V87.6737H125.205" fill="white" style="fill:white;fill-opacity:1;"/>
<path fill-rule="evenodd" clip-rule="evenodd" d="M134.051 67.0347H140.785L144.323 73.1348L147.748 67.0347H154.481L147.062 78.0376V87.6737H141.527V78.0376" fill="white" style="fill:white;fill-opacity:1;"/>
<path fill-rule="evenodd" clip-rule="evenodd" d="M78.8086 67.0347H83.8878L89.3657 74.8454L94.731 67.0347H99.8666V87.6737H94.731V74.5026L89.8221 81.0597H88.9093L83.8878 74.5026V87.6737H78.8086" fill="white" style="fill:white;fill-opacity:1;"/>
<path fill-rule="evenodd" clip-rule="evenodd" d="M101.041 77.3535C101.041 71.2763 106.177 66.3506 112.511 66.3506C118.847 66.3506 123.982 71.2763 123.982 77.3535C123.982 83.4307 118.847 88.3579 112.511 88.3579C106.177 88.3579 101.041 83.4307 101.041 77.3535Z" fill="white" style="fill:white;fill-opacity:1;"/>
<path fill-rule="evenodd" clip-rule="evenodd" d="M107.09 77.354C107.09 74.0485 109.517 71.3677 112.511 71.3677C115.506 71.3677 117.933 74.0485 117.933 77.354C117.933 80.661 115.506 83.3404 112.511 83.3404C109.517 83.3404 107.09 80.661 107.09 77.354Z" fill="#D9261C" style="fill:#D9261C;fill:color(display-p3 0.8510 0.1490 0.1098);fill-opacity:1;"/>
<path fill-rule="evenodd" clip-rule="evenodd" d="M76.8805 38.0944C75.4304 38.0944 74.2549 39.2688 74.2549 40.7174V64.2904L155.81 64.2926V40.7189C155.81 39.2718 154.615 38.0901 153.161 38.0901" fill="#00458F" style="fill:#00458F;fill:color(display-p3 0.0000 0.2706 0.5608);fill-opacity:1;"/>
<path fill-rule="evenodd" clip-rule="evenodd" d="M92.4102 40.9221H98.2311V61.5604H92.4102" fill="white" style="fill:white;fill-opacity:1;"/>
<path fill-rule="evenodd" clip-rule="evenodd" d="M145.427 40.9221H151.305V61.5604H145.427" fill="white" style="fill:white;fill-opacity:1;"/>
<path fill-rule="evenodd" clip-rule="evenodd" d="M78.8086 40.9221H84.0777V56.6576H90.9833V61.5604H78.8086" fill="white" style="fill:white;fill-opacity:1;"/>
<path fill-rule="evenodd" clip-rule="evenodd" d="M124.368 40.9221H130.132V53.9206C130.132 55.8728 131.818 57.4556 133.899 57.4556C135.979 57.4556 137.666 55.8728 137.666 53.9206V40.9221H143.372L143.391 55.802C143.391 55.802 143.372 62.188 133.899 62.188C124.425 62.188 124.368 55.802 124.368 55.802" fill="white" style="fill:white;fill-opacity:1;"/>
<path fill-rule="evenodd" clip-rule="evenodd" d="M118.813 63.6137L116.487 61.0764C114.941 61.8217 113.194 62.2408 111.346 62.2408C105.011 62.2408 99.875 57.3143 99.875 51.237C99.875 45.1598 105.011 40.2327 111.346 40.2327C117.681 40.2327 122.817 45.16 122.817 51.237C122.817 53.9892 121.763 56.5055 120.022 58.4353L122.979 61.5605" fill="white" style="fill:white;fill-opacity:1;"/>
<path fill-rule="evenodd" clip-rule="evenodd" d="M114.277 52.4392L116.017 54.2067C116.472 53.3301 116.768 52.3196 116.768 51.2373C116.768 47.9303 114.34 45.251 111.346 45.251C108.352 45.251 105.925 47.9303 105.925 51.2373C105.925 54.5436 108.352 57.2237 111.346 57.2237C111.868 57.2237 112.359 57.1284 112.83 56.9712L110.481 54.3777" fill="#00458F" style="fill:#00458F;fill:color(display-p3 0.0000 0.2706 0.5608);fill-opacity:1;"/>
</g>
<defs>
<clipPath id="clip0_253_1192">
<rect width="84" height="54.8136" fill="white" style="fill:white;fill-opacity:1;" transform="translate(73 37)"/>
</clipPath>
</defs>
</svg>
