<svg width="230" height="128" viewBox="0 0 230 128" fill="none" xmlns="http://www.w3.org/2000/svg">
<path d="M61.4376 54.3574V73.5384H56.5519V63.8574L52.9329 73.5384H48.4995L44.79 63.8574V73.5384H39.9043V54.3574H45.7852L50.671 67.0241L55.5567 54.3574H61.4376ZM79.4424 56.8003C81.3424 58.6098 82.2472 61.0526 82.2472 63.9479C82.2472 66.8431 81.2519 69.1955 79.4424 71.0955C77.5424 72.905 75.19 73.9003 72.2948 73.9003C69.3995 73.9003 67.0472 72.9955 65.1472 71.0955C63.2472 69.1955 62.3424 66.8431 62.3424 64.0384C62.3424 61.1431 63.3376 58.7907 65.1472 56.9812C67.0472 55.0812 69.3995 54.1765 72.2948 54.1765C75.0995 54.086 77.5424 54.9907 79.4424 56.8003ZM77.4519 63.9479C77.4519 62.3193 76.9995 60.9622 76.0043 59.8765C75.0091 58.7907 73.8329 58.3384 72.2043 58.3384C70.6662 58.3384 69.3995 58.8812 68.4948 59.8765C67.59 60.9622 67.0472 62.3193 67.0472 63.9479C67.0472 65.5765 67.4995 66.9336 68.4948 68.0193C69.49 69.105 70.6662 69.5574 72.2043 69.5574C73.7424 69.5574 75.0091 69.0146 76.0043 68.0193C76.9091 66.9336 77.4519 65.5765 77.4519 63.9479ZM97.4472 66.7526L97.2662 67.1146C96.9043 67.8384 96.3614 68.4717 95.6376 68.9241C94.9138 69.3765 94.0995 69.6479 93.2852 69.6479C91.7472 69.6479 90.4805 69.105 89.3948 68.0193C88.3995 66.9336 87.8567 65.5765 87.8567 63.9479C87.8567 62.3193 88.3995 60.9622 89.3948 59.8765C90.39 58.7907 91.6567 58.2479 93.2852 58.2479C94.0995 58.2479 94.9138 58.5193 95.6376 58.9717C96.3614 59.4241 96.9043 60.0574 97.2662 60.7812L97.4472 61.1431L101.519 59.1526L101.338 58.7907C99.6186 55.7146 96.9043 54.086 93.2852 54.086C90.39 54.086 87.9472 54.9907 86.0472 56.8907C84.1472 58.7003 83.1519 61.1431 83.1519 64.0384C83.1519 66.9336 84.1472 69.286 86.0472 71.186C87.9472 72.9955 90.39 73.9907 93.2852 73.9907C96.8138 73.9907 99.5281 72.3622 101.338 69.286L101.519 68.9241L97.4472 66.7526ZM111.923 63.405L119.523 54.3574H113.642L107.761 61.8669V54.3574H103.057V73.5384H107.761V67.6574L108.757 66.3907L114.185 73.5384H119.976L111.923 63.405ZM137.257 68.2003C137.257 69.7384 136.714 71.005 135.719 72.0003C134.723 72.9955 133.276 73.5384 131.466 73.5384H121.152V54.3574H131.195C133.004 54.3574 134.361 54.8098 135.357 55.805C136.352 56.8003 136.895 57.9765 136.895 59.4241C136.895 60.6003 136.533 61.686 135.9 62.5003C135.538 62.9526 135.085 63.3146 134.542 63.586C135.176 63.8574 135.628 64.3098 136.171 64.8526C136.895 65.8479 137.257 66.9336 137.257 68.2003ZM132.1 60.1479C132.1 59.6955 131.919 59.2431 131.647 58.9717C131.285 58.7003 130.923 58.5193 130.38 58.5193H125.857V61.7765H130.38C130.923 61.7765 131.376 61.5955 131.647 61.3241C132.009 60.9622 132.1 60.6003 132.1 60.1479ZM125.857 69.3765H130.471C131.104 69.3765 131.557 69.1955 131.919 68.9241C132.28 68.6526 132.461 68.2003 132.461 67.6574C132.461 67.1146 132.28 66.7526 131.919 66.3907C131.557 66.0288 131.104 65.8479 130.471 65.8479H125.857V69.3765ZM157.433 73.5384H152.095L151.009 70.4622H143.68L142.504 73.5384H137.166L144.585 54.3574H150.014L157.433 73.5384ZM149.652 66.2098L147.3 59.8765L144.947 66.2098H149.652ZM190.095 65.486V69.7384H187.742V73.5384H183.038V69.7384H174.261V66.1193L181.771 54.3574H187.742V65.486H190.095ZM183.038 65.486V59.5146L179.147 65.486H183.038ZM173.447 69.3765V73.5384H158.88V69.5574L159.061 69.4669C159.152 69.4669 164.309 65.7574 167.204 63.6765C168.38 62.8622 169.014 61.9574 169.014 61.0526C169.014 59.5146 167.747 58.2479 166.119 58.2479C164.309 58.2479 163.223 59.786 162.861 60.6003L158.971 58.7003C159.785 56.8907 162.138 53.905 166.209 53.905C170.19 53.905 173.447 57.1622 173.447 61.1431C173.447 63.405 172 65.6669 169.647 67.205C168.109 68.2907 167.023 68.9241 166.39 69.3765H173.447Z" fill="#252525" style="fill:#252525;fill:color(display-p3 0.1451 0.1451 0.1451);fill-opacity:1;"/>
</svg>
