<svg width="230" height="128" viewBox="0 0 230 128" fill="none" xmlns="http://www.w3.org/2000/svg">
    <g clipPath="url(#clip0_253_1188)">
        <path
            d="M124.672 58.0333V62.3574H129.641V64.939H124.672V72.6191H121.445V55.3872H129.899V58.0333H124.672ZM141.904 72.6837C141.904 72.6837 142.097 61.2603 142.226 57.7106L139.451 72.6837H136.482L133.643 57.7106C133.643 57.7106 133.836 68.4241 133.901 72.6837H130.674V55.3872H135.837L137.838 67.456L139.903 55.3872H145.001V72.6837H141.904ZM50 55.5809H55.0986L57.1638 67.5851L59.1645 55.5809H64.2631V72.6837H61.1652L61.4879 57.8397L58.7128 72.6837H55.6794L52.8397 57.8397L53.0979 72.6837H50V55.5809ZM87.1099 55.5809H90.3369V62.2284L93.7575 55.5809H96.9844L93.1121 63.0028L97.1135 72.6837H93.6929L90.3369 64.2936V72.6837H87.1099V55.5809ZM97.8234 55.5809H103.116C104.342 55.5809 105.052 55.6454 105.762 56.0972C106.859 56.8071 106.988 57.9043 106.988 59.066V60.6149C106.988 62.8738 106.213 63.261 104.987 63.5191C107.052 63.9064 107.182 64.8099 107.182 66.617V69.0695C107.182 69.9731 107.182 71.3929 106.02 72.1674C105.374 72.6192 104.471 72.6837 103.245 72.6837H97.8234V55.5809ZM100.986 62.2929C102.406 62.2929 102.728 62.2929 103.051 62.2284C103.696 62.0993 103.89 61.583 103.89 60.6794C103.89 59.066 103.89 58.9369 103.761 58.6142C103.567 58.0333 103.051 57.9043 102.277 57.9043H100.986V62.2929ZM100.986 70.1667H102.277C103.567 70.1667 104.084 70.0376 104.084 68.4241V66.4234C104.084 65.0035 103.696 64.7454 102.341 64.7454H100.986V70.1667ZM111.054 55.5809H114.668L117.895 72.6837H114.668L114.281 69.9085H111.312L110.86 72.6837H107.698L111.054 55.5809ZM111.699 67.2624H113.894L112.861 59.905L111.699 67.2624ZM70.6525 73.2C68.1355 73.2 66.0057 71.0702 66.0057 68.4887V59.7113C66.0057 57.1298 68.0709 55 70.6525 55C73.1695 55 75.2993 57.1298 75.2993 59.7113V68.5532C75.2348 71.1348 73.1695 73.2 70.6525 73.2ZM70.6525 58.0333C69.8135 58.0333 69.1035 58.7433 69.1035 59.6468V68.5532C69.1035 69.4567 69.8135 70.1667 70.6525 70.1667C71.4915 70.1667 72.2014 69.4567 72.2014 68.5532V59.7113C72.2014 58.8078 71.4915 58.0333 70.6525 58.0333ZM82.8504 65.9071V68.5532C82.8504 69.4567 82.1404 70.1667 81.3014 70.1667C80.4624 70.1667 79.7525 69.4567 79.7525 68.5532V59.7113C79.7525 58.8078 80.4624 58.0979 81.3014 58.0979C82.1404 58.0979 82.8504 58.8078 82.8504 59.7113V61.4539H85.8837V59.7113C85.8837 57.1298 83.8184 55 81.2369 55C78.7199 55 76.5901 57.1298 76.5901 59.7113V68.5532C76.5901 71.1348 78.6553 73.2645 81.2369 73.2645C83.7539 73.2645 85.8837 71.1348 85.8837 68.5532V65.9071H82.8504Z"
            fill="#B71F38" style="fill:#B71F38;fill:color(display-p3 0.7176 0.1216 0.2196);fill-opacity:1;" />
        <path
            d="M165.46 64.5521C167.009 63.0032 168.235 61.8415 168.235 59.6471C168.235 57.0656 166.17 54.9358 163.588 54.9358C161.071 54.9358 158.941 57.0656 158.941 59.6471V61.4542H161.975V59.7117C161.975 58.8081 162.685 58.0982 163.524 58.0982C164.363 58.0982 165.073 58.8081 165.073 59.7117C165.073 60.5507 164.75 60.9379 163.201 62.4223L162.556 63.0677C160.555 65.133 158.683 67.1982 158.683 70.1025V72.7486H166.815V70.1025H161.846C161.846 68.5535 162.878 67.1982 164.814 65.3266C165.073 65.0039 165.266 64.7457 165.46 64.5521ZM176.238 55.0003C173.721 55.0003 171.591 57.1301 171.591 59.7117V68.5535C171.591 71.1351 173.656 73.2649 176.238 73.2649C178.755 73.2649 180.885 71.1351 180.885 68.5535V59.7117C180.82 57.1301 178.755 55.0003 176.238 55.0003ZM177.787 68.5535C177.787 69.4571 177.077 70.167 176.238 70.167C175.399 70.167 174.689 69.4571 174.689 68.5535V59.7117C174.689 58.8081 175.399 58.0982 176.238 58.0982C177.077 58.0982 177.787 58.8081 177.787 59.7117V68.5535ZM168.235 70.0379H170.881V72.684H168.235V70.0379ZM153.327 55.0003C150.809 55.0003 148.68 57.0656 148.68 59.5826V61.067C148.68 63.4549 150.551 65.4556 152.939 65.6493L153.197 62.5514C152.358 62.4869 151.713 61.8415 151.713 61.0025V59.5826C151.713 58.7436 152.423 58.0337 153.327 58.0337C154.166 58.0337 154.875 58.7436 154.875 59.5826V59.7762L154.036 69.6507C153.972 69.9734 153.714 70.2315 153.327 70.2315C153.004 70.2315 152.681 69.9734 152.617 69.6507V69.5861L152.423 68.0372H149.583L149.906 70.167C150.293 72.2968 151.907 73.2003 153.391 73.2003C154.811 73.2003 156.36 72.2968 156.747 70.167V70.1025L157.973 60.1635C157.973 60.0344 158.038 59.7762 158.038 59.5826C157.973 57.0656 155.908 55.0003 153.327 55.0003Z"
            fill="#45C2CC" style="fill:#45C2CC;fill:color(display-p3 0.2706 0.7608 0.8000);fill-opacity:1;" />
    </g>
    <defs>
        <clipPath id="clip0_253_1188">
            <rect width="130.821" height="18.2" fill="white" style="fill:white;fill-opacity:1;"
                transform="translate(50 55)" />
        </clipPath>
    </defs>
</svg>