<svg width="230" height="128" viewBox="0 0 230 128" fill="none" xmlns="http://www.w3.org/2000/svg">
<path fill-rule="evenodd" clip-rule="evenodd" d="M70.6583 46.0002L68.9927 50.5627H92.0744L93.74 46.0002H70.6583ZM68.1594 52.8429L66.4937 57.4043H89.5755L91.2411 52.8429H68.1594ZM65.6656 59.6855L64 64.2469H87.0817L88.7463 59.6855H65.6656Z" fill="#009FDF" style="fill:#009FDF;fill:color(display-p3 0.0000 0.6235 0.8745);fill-opacity:1;"/>
<mask id="mask0_253_1154" style="mask-type:luminance" maskUnits="userSpaceOnUse" x="98" y="52" width="64" height="29">
<path d="M98.7402 80.8797H161.924V52.9319H98.7402V80.8797Z" fill="#0A2973" style="fill:#0A2973;fill:color(display-p3 0.0392 0.1608 0.4510);fill-opacity:1;"/>
</mask>
<g mask="url(#mask0_253_1154)">
<path fill-rule="evenodd" clip-rule="evenodd" d="M113.181 65.9868V66.0831C114.235 66.4703 115.243 67.1473 115.771 67.5821C117.402 68.9361 118.122 70.725 118.122 73.0459C118.122 76.8669 116.107 79.6226 112.796 80.4932C111.789 80.783 110.734 80.8803 108.766 80.8803H98.7402V52.9319H107.616C109.439 52.9319 110.686 53.0281 111.789 53.318C115.004 54.1886 117.114 56.4133 117.114 59.9423C117.114 61.8284 116.443 63.4247 115.34 64.4879C114.86 64.9713 114.188 65.5521 113.181 65.9868ZM104.305 68.9361V76.2861H108.144C109.294 76.2861 110.35 76.1898 111.118 75.4641C111.885 74.7385 112.221 73.8202 112.221 72.6111C112.221 71.6929 111.981 70.8223 111.501 70.1939C110.686 69.1784 109.678 68.9361 107.951 68.9361H104.305ZM104.257 64.1007H107.375C108.335 64.1007 108.814 64.1007 109.294 63.9558C110.59 63.5686 111.406 62.4092 111.406 60.8129C111.406 58.9278 110.542 58.1048 109.294 57.7187C108.766 57.5737 108.239 57.5251 107.183 57.5251H104.257V64.1007ZM126.469 80.8803V57.6213H118.458V52.9319H140.719L139.136 57.6213H132.034V80.8803H126.469ZM142.445 80.8803V52.9319H160.485L158.902 57.6213H147.963V63.8108H152.425C156.023 63.8108 157.894 64.6815 159.19 65.7933C160.197 66.6639 161.924 68.5976 161.924 72.4186C161.924 76.1898 160.149 78.2685 158.662 79.3327C156.935 80.5408 155.112 80.8803 151.417 80.8803H142.445ZM147.963 76.1898H152.137C153.72 76.1898 154.679 75.8027 155.351 74.932C155.687 74.4973 156.167 73.7229 156.167 72.2726C156.167 70.8223 155.687 69.8067 154.728 69.0811C154.153 68.6463 153.384 68.4051 152.089 68.4051H147.963V76.1898Z" fill="#0A2973" style="fill:#0A2973;fill:color(display-p3 0.0392 0.1608 0.4510);fill-opacity:1;"/>
</g>
</svg>
