<svg width="230" height="128" viewBox="0 0 230 128" fill="none" xmlns="http://www.w3.org/2000/svg">
<path d="M62.3925 49.4146C62.4764 48.2785 62.8321 47.1792 63.4295 46.2093C63.587 45.9424 63.7619 45.7081 63.9296 45.4402C65.429 45.7664 66.8803 46.2819 68.2497 46.9764C67.7472 47.6311 67.4142 48.3998 67.2802 49.2141C67.1452 50.1039 67.2495 51.0142 67.5798 51.8528C67.9349 52.6663 68.4589 53.3949 69.117 53.9904C69.7475 54.5662 70.4565 55.0497 71.2228 55.4263C72.7071 56.1533 74.3141 56.5966 75.9612 56.7334C76.2936 56.7661 76.6281 56.7661 76.9635 56.7661C77.029 56.9665 77.1302 57.1997 77.1967 57.4339C76.5759 57.5127 75.951 57.5567 75.3251 57.5679C72.9861 57.6344 70.6133 57.3347 68.442 56.5656C66.2687 55.7587 64.2641 54.4567 63.1984 52.5534C62.6029 51.6194 62.3206 50.5199 62.3925 49.4146ZM74.3872 65.3439C70.5785 65.1434 66.7688 64.3426 63.2935 62.7052C61.5237 61.9045 59.8802 60.8498 58.415 59.5745C56.9453 58.2644 55.6751 56.6955 54.907 54.8576C54.1084 53.0215 53.8419 50.998 54.1379 49.0178C54.3138 47.8938 54.6513 46.8015 55.1402 45.7756C53.0359 46.3682 51.063 47.3542 49.3258 48.6813C49.2931 48.9503 49.2594 49.2499 49.2266 49.5169C49.0589 51.6953 49.5232 53.8748 50.5634 55.7965C51.5657 57.6968 53.0977 59.3649 54.8344 60.7016C56.6149 62.0335 58.5717 63.1118 60.6487 63.9059C64.8256 65.5423 69.3696 66.2112 73.883 66.1774C75.1891 66.1665 76.4938 66.0887 77.792 65.9442C77.8247 65.7438 77.8595 65.5433 77.8922 65.3122C76.7268 65.4065 75.5561 65.4168 74.3893 65.3428L74.3872 65.3439ZM59.9522 57.6978C61.3026 58.719 62.7868 59.5501 64.3633 60.1677C67.5389 61.4032 71.0142 61.9371 74.465 61.8706C75.649 61.8608 76.8316 61.783 78.0067 61.6374C78.0141 61.5474 78.0026 61.4568 77.973 61.3715C77.973 61.2692 77.9402 61.17 77.9402 61.0688C77.0372 61.1025 76.1351 61.1025 75.233 61.0688C72.4914 60.927 69.801 60.2698 67.3027 59.1317C66.0522 58.5398 64.8848 57.7865 63.8304 56.8909C62.755 55.9503 61.8796 54.8033 61.2562 53.5178C60.6416 52.1944 60.4323 50.7187 60.6548 49.2765C60.8716 47.8983 61.4198 46.5934 62.2523 45.4739C62.3106 45.3891 62.3781 45.3103 62.4538 45.2397C61.1617 45.0443 59.8513 44.9997 58.549 45.1068C58.0141 45.1405 57.514 45.2397 57.0118 45.3062C56.3676 46.5187 55.9702 47.847 55.8428 49.2141C55.6791 50.8505 56.0054 52.4992 56.7786 53.9494C57.4802 55.4263 58.6216 56.6955 59.9522 57.6978ZM73.8227 69.6946C68.9421 69.4931 64.0636 68.4909 59.585 66.4883C57.3129 65.4938 55.197 64.175 53.3033 62.5732C51.3979 60.9696 49.7595 59.0325 48.6907 56.7334C47.7595 54.7407 47.3264 52.5516 47.4286 50.3545C44.6231 53.1932 42.8465 56.8879 42.381 60.8517C41.9155 64.8156 42.7878 68.8214 44.8593 72.2328C46.9307 75.6442 50.0827 78.2657 53.8145 79.6809C57.5463 81.0961 61.6439 81.2238 65.4566 80.0438C67.9856 79.2598 70.3091 77.9245 72.2599 76.1342C74.2106 74.3439 75.7399 72.1431 76.7375 69.6905C75.7628 69.7212 74.7912 69.7202 73.8227 69.6864V69.6946ZM69.4443 47.6442C69.1483 48.1762 68.9858 48.7722 68.9708 49.3808C68.9677 49.929 69.1334 50.4649 69.4443 50.916C70.0457 51.8508 71.1155 52.4849 72.2855 52.8531C73.2387 53.1394 74.2297 53.2775 75.2249 53.2601C73.724 50.9945 71.7523 49.079 69.4443 47.6442Z" fill="#1345AE" style="fill:#1345AE;fill:color(display-p3 0.0745 0.2706 0.6824);fill-opacity:1;"/>
<path d="M104.275 77.9906C103.186 77.4293 102.28 76.5688 101.663 75.5104C101.027 74.4409 100.701 73.2158 100.721 71.9717C100.701 70.7281 101.027 69.5033 101.662 68.434C102.296 67.3895 103.198 66.5339 104.275 65.9559C105.434 65.3423 106.73 65.0303 108.042 65.0498C109.344 65.0264 110.631 65.3389 111.778 65.9569C112.86 66.5266 113.764 67.3842 114.389 68.435C115.025 69.506 115.36 70.7283 115.36 71.9737C115.36 73.2191 115.025 74.4415 114.389 75.5125C113.755 76.5567 112.854 77.4126 111.778 77.9916C110.63 78.6062 109.344 78.9184 108.042 78.8988C106.733 78.8912 105.444 78.5804 104.275 77.9906ZM110.167 75.6914C110.792 75.3326 111.306 74.8104 111.656 74.1808C112.015 73.5004 112.202 72.7428 112.202 71.9737C112.202 71.2046 112.015 70.4471 111.656 69.7667C111.306 69.1366 110.792 68.6137 110.167 68.254C109.504 67.897 108.763 67.7101 108.011 67.7101C107.258 67.7101 106.517 67.897 105.854 68.254C105.231 68.6142 104.717 69.1366 104.367 69.7656C104.008 70.4462 103.821 71.2039 103.821 71.9732C103.821 72.7425 104.008 73.5002 104.367 74.1808C104.717 74.8109 105.232 75.3338 105.856 75.6935C106.513 76.0594 107.254 76.2473 108.006 76.2386C108.762 76.2525 109.509 76.0636 110.167 75.6914ZM96.4367 49.5132C95.9816 48.7871 95.3137 48.243 94.4311 47.8492C93.5474 47.4554 92.5155 47.2785 91.3322 47.2785H85.5332V60.5834H88.6321V56.8893H91.3352C92.5186 56.8893 93.5526 56.7082 94.4342 56.3186C95.2515 55.9737 95.9491 55.3957 96.4398 54.6566C96.9102 53.8834 97.1537 52.9926 97.1393 52.0885C97.1586 51.1796 96.9146 50.2845 96.4367 49.5112V49.5132ZM94.0384 52.1141C94.0384 52.8392 93.796 53.414 93.3081 53.8067C92.8213 54.1984 92.0941 54.4111 91.1829 54.4111H88.6618V49.7842H91.1829C92.1238 49.7842 92.8223 49.9949 93.3081 50.3877C93.7939 50.7804 94.0384 51.3562 94.0384 52.113V52.1141ZM101.904 47.2744H98.8381V60.609H101.753L108.132 51.93V60.609H111.2V47.2744H108.284L101.904 55.9524V47.2744ZM123.046 57.7371H116.819L115.635 60.609H112.446L118.429 47.2744H121.497L127.481 60.609H124.231L123.046 57.7371ZM122.043 55.4083L119.916 50.2977L117.791 55.4083H122.043ZM97.8031 78.6553V65.3208H94.7072V70.5818H88.6321V65.3208H85.5332V78.6553H88.6321V73.1826H94.7072V78.6553H97.8031ZM130.031 74.906C130.031 74.0898 129.819 73.423 129.394 72.8799C128.906 72.3116 128.261 71.9008 127.54 71.6996C128.113 71.4562 128.6 71.0461 128.937 70.5235C129.273 70.0009 129.442 69.3882 129.423 68.7674C129.423 67.6792 128.994 66.8314 128.117 66.2269C127.242 65.6215 126.024 65.3208 124.474 65.3208H118.248V78.6553H124.84C126.512 78.6553 127.786 78.323 128.698 77.6561C129.577 77.022 130.033 76.0852 130.033 74.9049L130.031 74.906ZM124.199 70.8242H121.315V67.5585H124.201C124.869 67.5585 125.355 67.7089 125.72 67.9861C125.889 68.1373 126.024 68.324 126.113 68.533C126.202 68.7419 126.244 68.9679 126.236 69.1949C126.236 69.7401 126.054 70.1318 125.72 70.4049C125.387 70.6769 124.869 70.8242 124.201 70.8242H124.199ZM124.716 72.9638C126.173 72.9638 126.902 73.5089 126.902 74.6278C126.902 75.7773 126.173 76.3521 124.716 76.3511H121.314V72.9699L124.716 72.9638ZM135.591 77.9855C134.501 77.4243 133.595 76.5639 132.977 75.5053C132.342 74.4357 132.016 73.2105 132.036 71.9666C132.016 70.7226 132.342 69.4975 132.977 68.4279C133.611 67.3831 134.514 66.5274 135.591 65.9498C136.75 65.3373 138.046 65.0278 139.357 65.0498C140.66 65.0262 141.947 65.3386 143.093 65.9569C144.176 66.5265 145.08 67.3841 145.705 68.435C146.341 69.5059 146.677 70.7283 146.677 71.9737C146.677 73.2192 146.341 74.4416 145.705 75.5125C145.072 76.5573 144.17 77.4134 143.093 77.9916C141.945 78.6066 140.66 78.9191 139.357 78.8998C138.049 78.8879 136.761 78.5765 135.592 77.9895L135.591 77.9855ZM141.487 75.6925C142.111 75.3325 142.626 74.8092 142.976 74.1788C143.334 73.4985 143.521 72.7411 143.521 71.9722C143.521 71.2033 143.334 70.446 142.976 69.7656C142.626 69.1355 142.111 68.6123 141.487 68.252C140.824 67.8951 140.083 67.7082 139.33 67.7082C138.577 67.7082 137.836 67.8951 137.173 68.252C136.549 68.6124 136.034 69.1356 135.685 69.7656C135.326 70.4461 135.139 71.2036 135.139 71.9727C135.139 72.7418 135.326 73.4994 135.685 74.1798C136.034 74.8098 136.549 75.3327 137.173 75.6925C137.83 76.058 138.571 76.2456 139.323 76.2366C140.08 76.252 140.827 76.0641 141.487 75.6925ZM149.567 75.5411C150.21 76.5703 151.11 77.4145 152.178 77.9906C153.301 78.595 154.517 78.866 155.915 78.866C156.995 78.8756 158.067 78.6701 159.068 78.2616C159.988 77.8647 160.801 77.2531 161.436 76.4779L159.43 74.6636C158.518 75.7221 157.395 76.2325 156.058 76.2325C155.284 76.2463 154.52 76.0584 153.84 75.6873C153.208 75.3288 152.683 74.8067 152.322 74.1757C151.963 73.4952 151.775 72.7375 151.775 71.9681C151.775 71.1988 151.963 70.441 152.322 69.7605C152.683 69.1297 153.208 68.6077 153.84 68.2489C154.52 67.8782 155.284 67.6907 156.058 67.7048C157.395 67.7048 158.518 68.2489 159.43 69.2747L161.436 67.4593C160.799 66.6938 159.986 66.0926 159.068 65.7064C158.067 65.2982 156.995 65.0924 155.915 65.1009C154.517 65.1009 153.272 65.374 152.178 65.9784C151.092 66.5276 150.185 67.3775 149.567 68.4269C148.929 69.4557 148.625 70.636 148.625 71.9656C148.625 73.2951 148.926 74.5122 149.564 75.5411H149.567ZM174.018 67.8367H169.735V78.6615H166.668V67.8306H162.411V65.3208H174.02L174.018 67.8367ZM179.516 65.3269H176.448V78.6615H179.364L185.742 69.9825V78.6615H188.81V65.3208H185.894L179.516 73.9988V65.3269Z" fill="#003057" style="fill:#003057;fill:color(display-p3 0.0000 0.1882 0.3412);fill-opacity:1;"/>
</svg>
