<svg width="230" height="128" viewBox="0 0 230 128" fill="none" xmlns="http://www.w3.org/2000/svg">
<path d="M117.658 76.7079H121.579V57.8331H117.658V76.7079ZM113.009 76.7079H116.932V53.9387H113.009V76.7079ZM108.361 76.7079H112.283V57.8331H108.361V76.7079Z" fill="#FDCF00" style="fill:#FDCF00;fill:color(display-p3 0.9922 0.8118 0.0000);fill-opacity:1;"/>
<path d="M117.658 57.2414H121.579V37.0476H117.658V57.2414ZM122.304 62.7829L126.228 59.0698V41.2566H122.304M126.954 58.5749L130.875 55.2119V45.5322H126.954M113.008 53.1053H116.931V32.8396H113.008V53.1053ZM108.361 57.2414H112.282V37.0476H108.361V57.2414ZM107.632 62.7829L103.71 59.0698V41.2566H107.632M102.981 58.5749L99.0605 55.2119V45.5322H102.981" fill="black" style="fill:black;fill-opacity:1;"/>
<path d="M106.851 88.8577C106.402 88.4097 105.579 88.1785 104.407 88.1441H104.402L99.7363 88.1424C99.3056 88.1424 98.9555 87.808 98.9555 87.3913C98.9555 86.9745 99.3056 86.639 99.7363 86.639H107.166V84.4304H99.7225C98.3922 84.4304 97.4714 84.6596 96.9559 85.1201C96.4859 85.543 96.2292 86.1608 96.1921 86.9714C96.0436 90.3855 98.2013 90.3626 99.3724 90.3948H99.3784L104.043 90.3982C104.476 90.3982 104.824 90.7326 104.824 91.1514C104.824 91.5671 104.476 91.9047 104.043 91.9047H96.5895V94.1113H104.057C105.385 94.1113 106.308 93.8831 106.822 93.4216C107.293 92.9976 107.546 92.3829 107.585 91.5702C107.588 91.4983 107.742 89.7422 106.851 88.8577ZM81.515 94.1311L78.149 90.7837C79.3031 90.7441 80.103 90.5128 80.5517 90.0763C81.0429 89.5981 81.2911 88.9074 81.2911 88.0083V87.2436C81.2911 86.3445 81.0429 85.6537 80.5517 85.1755C80.0585 84.6973 79.1461 84.4598 77.8063 84.4598H69.8936V94.1249H72.8787V90.79H74.7554L78.1097 94.1311H81.515ZM72.8787 86.6601H77.3056C77.8594 86.6601 78.307 87.0915 78.307 87.6259C78.307 88.1614 77.8594 88.5948 77.3056 88.5948H72.8787M152.741 86.6247H148.576V84.4119H160.106V86.6247H155.764V94.1353H152.741M138.675 90.3441V94.1353H135.65L135.634 87.2133C135.634 86.2726 135.897 85.5714 136.415 85.1068C136.937 84.6442 137.869 84.4119 139.213 84.4119H147.183V86.6258H140.549C139.808 86.6258 139.312 86.7591 139.062 87.0289C138.816 87.2977 138.684 87.6645 138.675 88.1322H147.183V90.3441M93.8186 93.4143C93.321 93.8936 92.397 94.1353 91.0413 94.1353H86.5954C85.2513 94.1353 84.3199 93.904 83.8001 93.4393C83.2813 92.9757 83.0193 92.2746 83.0193 91.3359V87.2133C83.0193 86.2726 83.2813 85.5714 83.8001 85.1078C84.3199 84.6452 85.2513 84.4119 86.5954 84.4119H91.0413C92.397 84.4119 93.321 84.6546 93.8186 85.1318C94.3182 85.6141 94.5654 86.3049 94.5654 87.2133V91.3359C94.5654 92.2412 94.3182 92.934 93.8186 93.4143ZM91.5272 88.1666C91.5272 87.6322 91.4115 87.2404 91.1803 86.9946C90.9469 86.7477 90.4334 86.6247 89.6357 86.6247H87.9331C87.1926 86.6247 86.6961 86.7591 86.449 87.0289C86.2007 87.2967 86.0745 87.678 86.0745 88.1666V90.3784C86.0745 90.8712 86.2007 91.2504 86.449 91.5182C86.6961 91.788 87.1926 91.9224 87.9331 91.9224H89.6357C90.4334 91.9224 90.9426 91.7995 91.1622 91.5526C91.384 91.3067 91.5038 90.9233 91.5272 90.3951M125.54 90.3597C125.553 90.8681 125.681 91.2577 125.928 91.5265C126.174 91.7932 126.659 91.9276 127.397 91.9276H133.952V94.1249H126.074C124.748 94.1249 123.822 93.8967 123.31 93.4331C122.794 92.9715 122.538 92.2756 122.538 91.3421V87.2436C122.538 86.308 122.794 85.6141 123.31 85.1505C123.822 84.6911 124.748 84.4598 126.074 84.4598H133.952V86.6612H127.397C126.659 86.6612 126.174 86.7956 125.928 87.0581C125.681 87.3227 125.553 87.6895 125.54 88.1593H133.952V90.3597M120.807 94.1603H117.766V88.2083C117.766 87.6686 117.651 87.2811 117.418 87.0362C117.191 86.7872 116.672 86.6643 115.873 86.6643H114.174C113.434 86.6643 112.938 86.7997 112.689 87.0685C112.438 87.3342 112.314 87.7166 112.314 88.2083V94.1603H109.258V87.2519C109.258 86.3132 109.52 85.611 110.039 85.1484C110.562 84.6848 111.491 84.4535 112.836 84.4535H117.281C118.637 84.4535 119.563 84.6921 120.06 85.1745C120.558 85.6537 120.807 86.3455 120.807 87.2519" fill="black" style="fill:black;fill-opacity:1;"/>
</svg>
