<svg width="230" height="128" viewBox="0 0 230 128" fill="none" xmlns="http://www.w3.org/2000/svg">
<g clip-path="url(#clip0_253_1231)">
<path d="M88 37H142V91H88V37Z" fill="#77BC1F" style="fill:#77BC1F;fill:color(display-p3 0.4667 0.7373 0.1216);fill-opacity:1;"/>
<path d="M125.665 57.8279H118.031V56.0061H142V57.8279H134.747V71.9941H125.665L125.665 57.8279ZM114.354 56.0061C115.547 56.0519 116.676 56.5598 117.501 57.4223C118.327 58.2848 118.785 59.4345 118.779 60.6285C118.783 61.605 118.476 62.5575 117.903 63.3481C117.33 64.1388 116.52 64.7266 115.591 65.0266L120.811 71.9942H111.22L106.57 65.2511H103.933V71.9942H94.7969V56.0063L114.354 56.0061ZM107.162 63.2659C107.843 63.226 108.483 62.927 108.951 62.4303C109.418 61.9336 109.678 61.2767 109.677 60.5945C109.676 59.8882 109.394 59.2111 108.895 58.7115C108.434 58.245 107.817 57.9664 107.162 57.9298H103.933V63.2659H107.182L107.162 63.2659Z" fill="black" style="fill:black;fill-opacity:1;"/>
</g>
<defs>
<clipPath id="clip0_253_1231">
<rect width="54" height="54" fill="white" style="fill:white;fill-opacity:1;" transform="translate(88 37)"/>
</clipPath>
</defs>
</svg>
