<svg width="230" height="128" viewBox="0 0 230 128" fill="none" xmlns="http://www.w3.org/2000/svg">
<g clip-path="url(#clip0_253_1123)">
<path d="M149 48.7378H47V79.7628H149V48.7378Z" fill="url(#paint0_linear_253_1123)" style=""/>
<path d="M183 48.7378H151.338V79.7628H183V48.7378Z" fill="#C40000" style="fill:#C40000;fill:color(display-p3 0.7686 0.0000 0.0000);fill-opacity:1;"/>
<path d="M133.155 56.1619C130.214 56.1619 127.79 58.2742 127.79 61.2154C127.79 63.2374 128.934 65.0165 130.605 65.9302L127.551 72.4646H131.449L134.032 66.581H135.493V72.4646H138.999V56.1619H133.155ZM133.155 59.1701H135.493V63.3869H133.155C132.109 63.3869 131.296 62.4617 131.296 61.2751C131.296 60.0885 132.109 59.1701 133.155 59.1701Z" fill="white" style="fill:white;fill-opacity:1;"/>
<path d="M122.277 56.1619L116.354 65.6712V56.1619H112.848V72.4646H115.889L121.753 63.0482V72.4646H125.259V56.1619H122.277Z" fill="white" style="fill:white;fill-opacity:1;"/>
<path d="M62.7168 59.1692H60.3793V63.3869H62.7168C63.763 63.3869 64.5762 62.4646 64.5762 61.278C64.5762 60.0914 63.763 59.1692 62.7168 59.1692ZM62.7168 56.1619C65.658 56.1619 68.0824 58.2745 68.0824 61.2157C68.0824 64.1568 65.658 66.5813 62.7168 66.5813H60.3793V72.4646H56.873V56.1619H62.7168Z" fill="white" style="fill:white;fill-opacity:1;"/>
<path d="M79.3656 64.3233C79.3656 63.3224 79.2575 62.4264 79.2328 61.7235C79.1759 60.1036 77.9351 58.7983 76.3309 58.7983C74.7266 58.7983 73.4782 60.1036 73.4223 61.7235C73.398 62.4264 73.2895 63.3224 73.2895 64.3233C73.2895 65.3242 73.3976 66.2269 73.4223 66.9297C73.4792 68.5496 74.7266 69.8549 76.3309 69.8549C77.9351 69.8549 79.1759 68.5496 79.2328 66.9297C79.2575 66.2269 79.3656 65.3242 79.3656 64.3233ZM76.3242 72.9362C72.7098 72.9362 69.7832 70.0029 69.7832 66.3885V62.2581C69.7832 58.6436 72.7098 55.717 76.3242 55.717C79.9386 55.717 82.8719 58.6436 82.8719 62.2581V66.3885C82.8719 70.0029 79.9386 72.9362 76.3242 72.9362Z" fill="white" style="fill:white;fill-opacity:1;"/>
<path d="M91.8039 55.717C88.1895 55.717 85.2351 58.0882 85.2629 62.2581C85.2721 63.6348 85.2629 66.3885 85.2629 66.3885C85.2629 70.6694 88.1895 72.9362 91.8039 72.9362C93.3494 72.9362 95.125 72.6407 96.6316 72.0264L95.8613 68.985C94.4077 69.529 92.6663 69.8549 91.8105 69.8549C90.2063 69.8549 88.9589 68.5529 88.902 66.9331C88.8773 66.2302 88.7691 65.3242 88.7691 64.3233C88.7691 63.3224 88.8777 62.4297 88.902 61.7268C88.9579 60.1069 90.2063 58.7983 91.8105 58.7983C92.7312 58.7983 94.5375 59.0685 95.9211 59.6018L96.6648 56.6733C95.2679 55.9965 93.517 55.717 91.8039 55.717Z" fill="white" style="fill:white;fill-opacity:1;"/>
<path d="M105.433 55.717C101.818 55.717 98.864 58.0882 98.8918 62.2581C98.901 63.6348 98.8918 66.3885 98.8918 66.3885C98.8918 70.6694 101.818 72.9362 105.433 72.9362C106.978 72.9362 108.754 72.6407 110.261 72.0264L109.49 68.985C108.037 69.529 106.295 69.8549 105.439 69.8549C103.835 69.8549 102.588 68.5529 102.531 66.9331C102.506 66.2302 102.398 65.3242 102.398 64.3233C102.398 63.3224 102.507 62.4297 102.531 61.7268C102.587 60.1069 103.835 58.7983 105.439 58.7983C106.36 58.7983 108.166 59.0685 109.55 59.6018L110.294 56.6733C108.897 55.9965 107.146 55.717 105.433 55.717Z" fill="white" style="fill:white;fill-opacity:1;"/>
<path d="M174.714 64.7338V68.1534H167.416V64.7338H174.714ZM174.766 56.0374L167.45 64.2345H171.961L179.276 56.0374H174.766ZM175.276 56.0374V56.1702L175.393 56.0374H175.276ZM179.111 56.9245L175.276 61.2224V71.6349H179.111V56.9245Z" fill="white" style="fill:white;fill-opacity:1;"/>
<path d="M160.974 56.0425V59.485C161.733 59.6223 162.308 60.2854 162.308 61.084C162.308 62.3999 161.382 63.2843 160.071 64.3459L155.062 68.4047V71.4487H157.978L164.215 65.9928C165.583 64.7957 166.664 63.0712 166.664 60.7919C166.664 57.6221 164.128 56.0831 160.974 56.0425ZM160.491 56.0531C157.651 56.224 155.365 58.4337 155.067 61.2381H159.062C159.057 61.1869 159.057 61.1366 159.057 61.084C159.057 60.2511 159.684 59.5697 160.491 59.4744L160.491 56.0531ZM162.754 67.8203L158.605 71.4487H166.542V67.8203H162.754Z" fill="white" style="fill:white;fill-opacity:1;"/>
</g>
<defs>
<linearGradient id="paint0_linear_253_1123" x1="148.958" y1="79.5861" x2="148.958" y2="48.911" gradientUnits="userSpaceOnUse">
<stop stop-color="#0029A6" style="stop-color:#0029A6;stop-color:color(display-p3 0.0000 0.1608 0.6510);stop-opacity:1;"/>
<stop offset="1" stop-color="#0069E4" style="stop-color:#0069E4;stop-color:color(display-p3 0.0000 0.4118 0.8941);stop-opacity:1;"/>
</linearGradient>
<clipPath id="clip0_253_1123">
<rect width="136" height="31.025" fill="white" style="fill:white;fill-opacity:1;" transform="translate(47 48.7375)"/>
</clipPath>
</defs>
</svg>
