<svg width="230" height="128" viewBox="0 0 230 128" fill="none" xmlns="http://www.w3.org/2000/svg">
<path d="M70.4987 54.9377L67.2851 60.5529L67.133 60.5415C67.1311 60.5415 65.9216 60.5245 64.3476 60.5453C62.4319 60.5718 60.7397 60.7099 59.7048 60.9294L59.1376 61.0694L62.6348 54.9396H55.1897L45.9697 71.5883H53.4186L55.4451 67.7894C56.3635 66.0904 58.3675 64.1721 60.5969 63.9413C61.3351 63.8656 62.169 63.8315 63.0724 63.8315C64.1767 63.8315 65.0031 63.894 65.0125 63.894L65.4126 63.9034L61.275 71.5864H68.7313L77.9512 54.9377H70.4987Z" fill="#231F20" style="fill:#231F20;fill:color(display-p3 0.1373 0.1216 0.1255);fill-opacity:1;"/>
<path d="M70.4987 54.9377L67.2851 60.5529L67.133 60.5415C67.1311 60.5415 65.9216 60.5245 64.3476 60.5453C62.4319 60.5718 60.7397 60.7099 59.7048 60.9294L59.1376 61.0694L62.6348 54.9396H55.1897L45.9697 71.5883H53.4186L55.4451 67.7894C56.3635 66.0904 58.3675 64.1721 60.5969 63.9413C61.3351 63.8656 62.169 63.8315 63.0724 63.8315C64.1767 63.8315 65.0031 63.894 65.0125 63.894L65.4126 63.9034L61.275 71.5864H68.7313L77.9512 54.9377H70.4987Z" fill="#231F20" style="fill:#231F20;fill:color(display-p3 0.1373 0.1216 0.1255);fill-opacity:1;"/>
<path d="M128.222 54.9379L116.82 64.3538L116.482 54.8735L109.396 54.8054L109.7 71.5865H117.849L137.423 54.9379H128.222Z" fill="#231F20" style="fill:#231F20;fill:color(display-p3 0.1373 0.1216 0.1255);fill-opacity:1;"/>
<path d="M128.222 54.9379L116.82 64.3538L116.482 54.8735L109.396 54.8054L109.7 71.5865H117.849L137.423 54.9379H128.222Z" fill="#231F20" style="fill:#231F20;fill:color(display-p3 0.1373 0.1216 0.1255);fill-opacity:1;"/>
<path d="M89.2375 57.5298C87.7744 58.5457 86.0615 59.8681 85.6182 60.2862L73.1396 71.6262H79.8673L81.9389 69.5925C82.94 68.6635 85.2614 67.6816 87.6035 67.6816H87.718C90.1221 67.7138 92.312 67.8671 92.3327 67.8689L92.7046 67.8954L91.0311 71.6262H96.7934L104.605 54.8962H98.6452C94.6785 54.8962 90.5597 56.6103 89.2375 57.5298ZM94.1301 64.5676H87.3105L90.1165 61.8679C90.2423 61.7562 93.0145 59.3043 94.2991 58.5419C95.1312 58.0481 95.997 57.9441 96.5774 57.9441C96.9079 57.9441 97.1183 57.9781 97.1277 57.98L97.4789 58.0387L94.1301 64.5676Z" fill="#231F20" style="fill:#231F20;fill:color(display-p3 0.1373 0.1216 0.1255);fill-opacity:1;"/>
<path d="M89.2375 57.5298C87.7744 58.5457 86.0615 59.8681 85.6182 60.2862L73.1396 71.6262H79.8673L81.9389 69.5925C82.94 68.6635 85.2614 67.6816 87.6035 67.6816H87.718C90.1221 67.7138 92.312 67.8671 92.3327 67.8689L92.7046 67.8954L91.0311 71.6262H96.7934L104.605 54.8962H98.6452C94.6785 54.8962 90.5597 56.6103 89.2375 57.5298ZM94.1301 64.5676H87.3105L90.1165 61.8679C90.2423 61.7562 93.0145 59.3043 94.2991 58.5419C95.1312 58.0481 95.997 57.9441 96.5774 57.9441C96.9079 57.9441 97.1183 57.9781 97.1277 57.98L97.4789 58.0387L94.1301 64.5676Z" fill="#231F20" style="fill:#231F20;fill:color(display-p3 0.1373 0.1216 0.1255);fill-opacity:1;"/>
<path d="M152.006 54.8962C148.041 54.8962 143.922 56.6122 142.6 57.5298C141.137 58.5438 139.424 59.8681 138.981 60.2862L126.502 71.6262H133.23L135.301 69.5925C136.302 68.6635 138.624 67.6816 140.968 67.6816H141.082C143.486 67.7138 145.676 67.8671 145.697 67.8689L146.069 67.8954L144.395 71.6262H150.158L157.969 54.8962H152.006ZM147.492 64.5676H140.673L143.479 61.8679C143.605 61.7562 146.377 59.3043 147.661 58.5419C148.493 58.0481 149.359 57.9441 149.94 57.9441C150.27 57.9441 150.482 57.9781 150.49 57.98L150.843 58.0387L147.492 64.5676Z" fill="#231F20" style="fill:#231F20;fill:color(display-p3 0.1373 0.1216 0.1255);fill-opacity:1;"/>
<path d="M152.006 54.8962C148.041 54.8962 143.922 56.6122 142.6 57.5298C141.137 58.5438 139.424 59.8681 138.981 60.2862L126.502 71.6262H133.23L135.301 69.5925C136.302 68.6635 138.624 67.6816 140.968 67.6816H141.082C143.486 67.7138 145.676 67.8671 145.697 67.8689L146.069 67.8954L144.395 71.6262H150.158L157.969 54.8962H152.006ZM147.492 64.5676H140.673L143.479 61.8679C143.605 61.7562 146.377 59.3043 147.661 58.5419C148.493 58.0481 149.359 57.9441 149.94 57.9441C150.27 57.9441 150.482 57.9781 150.49 57.98L150.843 58.0387L147.492 64.5676Z" fill="#231F20" style="fill:#231F20;fill:color(display-p3 0.1373 0.1216 0.1255);fill-opacity:1;"/>
<path d="M167.51 67.6135L167.452 67.6286C167.431 67.6173 166.924 67.3562 166.781 66.8227C166.697 66.5029 166.757 66.1832 166.962 65.8483C166.992 65.7954 170.427 59.6335 171.186 58.3338C172.174 56.6386 173.605 55.5073 174.506 54.9397H165.686C165.01 56.0748 159.971 65.1294 159.192 66.5105C158.38 67.9502 158.273 69.8497 159.864 70.9186C160.698 71.4786 163.185 71.5883 164.073 71.5883H180.437L184.03 67.6154H167.51V67.6135Z" fill="#231F20" style="fill:#231F20;fill:color(display-p3 0.1373 0.1216 0.1255);fill-opacity:1;"/>
<path d="M167.51 67.6135L167.452 67.6286C167.431 67.6173 166.924 67.3562 166.781 66.8227C166.697 66.5029 166.757 66.1832 166.962 65.8483C166.992 65.7954 170.427 59.6335 171.186 58.3338C172.174 56.6386 173.605 55.5073 174.506 54.9397H165.686C165.01 56.0748 159.971 65.1294 159.192 66.5105C158.38 67.9502 158.273 69.8497 159.864 70.9186C160.698 71.4786 163.185 71.5883 164.073 71.5883H180.437L184.03 67.6154H167.51V67.6135Z" fill="#231F20" style="fill:#231F20;fill:color(display-p3 0.1373 0.1216 0.1255);fill-opacity:1;"/>
</svg>
